HIERARCHY
ROOT Hips
{
	OFFSET -0.001795 -0.223333 0.028219
	CHANNELS 6 Xposition Yposition Zposition Zrotation Yrotation Xrotation 
	JOINT LeftUpLeg
	{
		OFFSET 0.069520 -0.091406 -0.006815
		CHANNELS 3 Zrotation Yrotation Xrotation
		JOINT LeftLeg
		{
			OFFSET 0.034277 -0.375199 -0.004496
			CHANNELS 3 Zrotation Yrotation Xrotation
			JOINT LeftFoot
			{
				OFFSET -0.013596 -0.397961 -0.043693
				CHANNELS 3 Zrotation Yrotation Xrotation
				JOINT LeftToe
				{
					OFFSET 0.026358 -0.055791 0.119288
					CHANNELS 3 Zrotation Yrotation Xrotation
					End Site
					{
						OFFSET 0.000000 0.000000 0.000000
					}
				}
			}
		}
	}
	JOINT RightUpLeg
	{
		OFFSET -0.067670 -0.090522 -0.004320
		CHANNELS 3 Zrotation Yrotation Xrotation
		JOINT RightLeg
		{
			OFFSET -0.038290 -0.382569 -0.008850
			CHANNELS 3 Zrotation Yrotation Xrotation
			JOINT RightFoot
			{
				OFFSET 0.015774 -0.398415 -0.042312
				CHANNELS 3 Zrotation Yrotation Xrotation
				JOINT RightToe
				{
					OFFSET -0.025372 -0.048144 0.123348
					CHANNELS 3 Zrotation Yrotation Xrotation
					End Site
					{
						OFFSET 0.000000 0.000000 0.000000
					}
				}
			}
		}
	}
	JOINT Spine
	{
		OFFSET -0.002533 0.108963 -0.026696
		CHANNELS 3 Zrotation Yrotation Xrotation
		JOINT Spine1
		{
			OFFSET 0.005487 0.135180 0.001092
			CHANNELS 3 Zrotation Yrotation Xrotation
			JOINT Spine2
			{
				OFFSET 0.001457 0.052922 0.025425
				CHANNELS 3 Zrotation Yrotation Xrotation
				JOINT Neck
				{
					OFFSET -0.002778 0.213870 -0.042857
					CHANNELS 3 Zrotation Yrotation Xrotation
					JOINT Head
					{
						OFFSET 0.005152 0.064970 0.051349
						CHANNELS 3 Zrotation Yrotation Xrotation
						End Site
						{
							OFFSET 0.000000 0.000000 0.000000
						}
					}
				}
				JOINT LeftShoulder
				{
					OFFSET 0.078845 0.121749 -0.034090
					CHANNELS 3 Zrotation Yrotation Xrotation
					JOINT LeftArm
					{
						OFFSET 0.090977 0.030469 -0.008868
						CHANNELS 3 Zrotation Yrotation Xrotation
						JOINT LeftForeArm
						{
							OFFSET 0.259612 -0.012772 -0.027456
							CHANNELS 3 Zrotation Yrotation Xrotation
							JOINT LeftHand
							{
								OFFSET 0.249234 0.008986 -0.001171
								CHANNELS 3 Zrotation Yrotation Xrotation
								End Site
								{
									OFFSET 0.000000 0.000000 0.000000
								}
							}
						}
					}
				}
				JOINT RightShoulder
				{
					OFFSET -0.081759 0.118833 -0.038615
					CHANNELS 3 Zrotation Yrotation Xrotation
					JOINT RightArm
					{
						OFFSET -0.096012 0.032551 -0.009143
						CHANNELS 3 Zrotation Yrotation Xrotation
						JOINT RightForeArm
						{
							OFFSET -0.253742 -0.013329 -0.021401
							CHANNELS 3 Zrotation Yrotation Xrotation
							JOINT RightHand
							{
								OFFSET -0.255298 0.007772 -0.005559
								CHANNELS 3 Zrotation Yrotation Xrotation
								End Site
								{
									OFFSET 0.000000 0.000000 0.000000
								}
							}
						}
					}
				}
			}
		}
	}
}
MOTION
Frames: 10
Frame Time: 0.050000
0.000000 0.958251 0.000000 -1.581546 -6.000178 1.570876 5.787000 0.288290 6.169291 -2.819753 0.445698 -8.502307 4.106010 10.284091 8.961440 0.000000 0.000000 0.000000 -4.914037 0.052184 2.842787 3.709829 -0.366020 -5.271707 -3.387665 -13.901000 21.916744 0.000000 0.000000 0.000000 -1.375073 0.029103 -0.237321 4.525664 -0.827786 -20.660482 -0.383589 1.573367 28.998113 1.086661 0.434206 -23.843469 0.000000 0.000000 0.000000 -24.631636 2.378041 -2.075306 -50.743665 -9.371369 -4.912817 -11.843318 -24.319456 3.971519 0.000000 0.000000 0.000000 17.173986 2.758393 0.047369 57.393239 4.411267 -6.217474 8.755495 27.517166 3.210187 0.000000 0.000000 0.000000 
-0.000075 0.957043 0.000274 -1.960043 -6.919648 2.147618 6.245366 0.280003 6.248817 -3.121428 0.482556 -9.333901 4.542127 10.990129 9.034419 0.000000 0.000000 0.000000 -4.320257 0.077133 1.925220 3.583857 -0.348750 -4.770950 -3.563495 -14.146841 20.990509 0.000000 0.000000 0.000000 -1.313385 0.092201 -2.003455 4.521754 -0.939521 -19.338100 -0.196460 1.707653 29.275074 1.372438 0.128952 -22.873242 0.000000 0.000000 0.000000 -24.969606 2.876564 -2.275414 -50.274685 -10.327559 -4.572302 -12.466931 -24.964744 4.251696 0.000000 0.000000 0.000000 16.406428 3.402193 0.350531 58.253040 3.987964 -6.568353 8.372348 29.093638 3.322035 0.000000 0.000000 0.000000 
-0.000045 0.956803 0.000409 -1.789372 -6.883631 2.390466 6.559837 0.214688 5.276618 -3.996195 0.511075 -8.130579 4.592271 11.023595 8.633135 0.000000 0.000000 0.000000 -4.363688 0.106180 1.481536 3.234629 -0.333920 -4.949754 -3.722692 -14.546225 22.048931 0.000000 0.000000 0.000000 -1.434190 0.113140 -2.561620 4.701750 -1.002834 -19.126048 -0.257976 1.237664 29.634325 1.199881 0.118803 -22.304715 0.000000 0.000000 0.000000 -25.364923 2.627489 -1.976867 -49.599289 -11.109680 -4.326024 -12.658998 -24.589817 4.236080 0.000000 0.000000 0.000000 16.081045 4.075716 0.615289 58.272498 3.968711 -6.603333 7.052290 28.348551 2.869595 0.000000 0.000000 0.000000 
-0.000077 0.956901 0.000575 -1.901095 -7.709380 2.639674 6.530499 0.243249 5.549527 -3.993067 0.522995 -8.440349 4.894267 11.469636 8.327838 0.000000 0.000000 0.000000 -4.483760 0.141489 1.159477 3.446677 -0.334233 -4.760076 -3.025955 -13.536354 21.331357 0.000000 0.000000 0.000000 -1.587112 0.141772 -3.285373 5.137253 -1.138648 -19.091092 -0.390401 1.389254 30.293168 1.393282 -0.092187 -22.005253 0.000000 0.000000 0.000000 -25.980327 3.274195 -2.279348 -49.272752 -11.444167 -4.295154 -13.374222 -24.563578 4.421087 0.000000 0.000000 0.000000 16.002757 4.861041 0.952579 58.259188 4.157616 -6.597698 6.154745 27.719641 2.571964 0.000000 0.000000 0.000000 
-0.000104 0.957585 0.000826 -1.830787 -7.583305 2.352124 6.321837 0.250421 5.478366 -3.924051 0.514009 -7.985575 5.142363 11.938808 8.559733 0.000000 0.000000 0.000000 -4.416730 0.123641 1.345917 3.093578 -0.319710 -4.668926 -2.942456 -13.502468 21.914959 0.000000 0.000000 0.000000 -1.447294 0.120777 -2.742211 5.204067 -1.176281 -18.846568 -0.767543 1.672494 29.902708 1.591185 -0.173126 -21.630182 0.000000 0.000000 0.000000 -25.595958 2.787037 -2.081592 -49.423048 -11.699436 -4.120589 -13.789829 -24.930529 4.562502 0.000000 0.000000 0.000000 16.357959 4.756426 0.947772 58.046378 3.999238 -6.600469 6.006546 27.044327 2.474272 0.000000 0.000000 0.000000 
-0.000092 0.958054 0.001128 -1.787649 -7.570971 2.556001 6.137814 0.252167 5.433759 -3.862048 0.516022 -8.626149 5.420924 12.500421 9.402493 0.000000 0.000000 0.000000 -4.528262 0.140730 1.185803 2.840367 -0.308326 -4.656467 -2.248330 -12.494941 21.946543 0.000000 0.000000 0.000000 -1.693861 0.125311 -2.871245 5.439604 -1.203430 -19.276549 -0.733971 1.551762 30.517033 1.597418 -0.201911 -21.725724 0.000000 0.000000 0.000000 -25.398193 2.955664 -2.106461 -49.714808 -12.042047 -4.065446 -14.129907 -25.155469 4.711927 0.000000 0.000000 0.000000 15.949552 5.067754 1.120892 57.961322 4.099293 -6.621654 5.572598 26.257409 2.292987 0.000000 0.000000 0.000000 
-0.000113 0.958226 0.001417 -1.799926 -7.487492 2.434870 6.031833 0.260808 5.513858 -3.647670 0.506427 -8.841938 5.522341 12.730573 9.989211 0.000000 0.000000 0.000000 -4.376527 0.129370 1.192667 2.636074 -0.297914 -4.486364 -2.392974 -12.744739 22.193710 0.000000 0.000000 0.000000 -1.616127 0.116656 -2.639589 5.453255 -1.229737 -18.994768 -0.918367 1.520366 30.346935 1.854870 -0.364560 -21.717653 0.000000 0.000000 0.000000 -25.489251 2.650307 -1.929061 -49.688336 -11.849800 -4.130301 -14.408569 -25.618086 4.870318 0.000000 0.000000 0.000000 16.041816 5.211395 1.190640 57.841820 4.191295 -6.547484 5.231639 26.039160 2.195693 0.000000 0.000000 0.000000 
-0.000091 0.958028 0.001705 -1.866618 -7.403933 2.456670 6.047901 0.252133 5.403425 -3.536762 0.497450 -8.664945 5.520189 12.719559 9.848447 0.000000 0.000000 0.000000 -4.170710 0.120258 1.128477 2.427891 -0.285403 -4.248556 -2.453379 -12.761212 21.881425 0.000000 0.000000 0.000000 -1.448800 0.109569 -2.424672 5.398412 -1.217755 -18.950039 -1.054471 1.387577 30.379129 1.943920 -0.451135 -21.497583 0.000000 0.000000 0.000000 -25.320467 2.203008 -1.606145 -49.619776 -11.501117 -4.274695 -14.669683 -26.371094 5.092361 0.000000 0.000000 0.000000 16.074567 5.365450 1.251721 57.700935 4.248278 -6.508055 4.744349 26.046151 2.088151 0.000000 0.000000 0.000000 
-0.000081 0.958077 0.002003 -1.819334 -7.610461 2.348225 5.869324 0.274181 5.562112 -3.361857 0.490731 -8.653587 5.612887 12.869155 9.891668 0.000000 0.000000 0.000000 -4.196870 0.117388 1.227201 2.346811 -0.278693 -4.144951 -2.317521 -12.536550 21.579739 0.000000 0.000000 0.000000 -1.275569 0.097956 -2.106949 5.446346 -1.246760 -18.825899 -1.107977 1.613335 30.216652 2.041257 -0.507951 -21.300670 0.000000 0.000000 0.000000 -25.563209 1.885903 -1.453943 -49.536775 -11.027848 -4.449797 -14.834895 -26.908538 5.239028 0.000000 0.000000 0.000000 16.205003 5.391763 1.275389 57.341113 4.122417 -6.518536 4.638194 26.525799 2.109312 0.000000 0.000000 0.000000 
-0.000038 0.958050 0.002295 -1.764328 -7.842276 2.345430 5.701976 0.283903 5.516808 -3.281203 0.485379 -8.409824 5.764521 13.099435 9.726306 0.000000 0.000000 0.000000 -4.217533 0.127934 1.104963 2.134771 -0.264468 -4.019547 -2.084051 -12.243707 21.633863 0.000000 0.000000 0.000000 -1.152027 0.087417 -1.821275 5.397789 -1.241641 -18.774461 -1.126310 1.733694 30.005812 2.222196 -0.630268 -21.201665 0.000000 0.000000 0.000000 -25.491833 1.808719 -1.400681 -49.894642 -10.469945 -4.661547 -14.929155 -27.338123 5.362316 0.000000 0.000000 0.000000 16.514689 5.545041 1.322626 56.888964 4.099396 -6.447246 4.342082 27.055337 2.084171 0.000000 0.000000 0.000000 
